HIERARCHY
ROOT hip
{
  OFFSET 0 0 0
  CHANNELS 6 Xposition Yposition Zposition Zrotation Yrotation Xrotation
  JOINT abdomen
  {
    OFFSET 0 20.6881 -0.73152
    CHANNELS 3 Zrotation Xrotation Yrotation
    JOINT chest
    {
      OFFSET 0 11.7043 -0.48768
      CHANNELS 3 Zrotation Xrotation Yrotation
      JOINT neck
      {
        OFFSET 0 22.1894 -2.19456
        CHANNELS 3 Zrotation Xrotation Yrotation
        JOINT head
        {
          OFFSET -0.24384 7.07133 1.2192
          CHANNELS 3 Zrotation Xrotation Yrotation
          JOINT leftEye
          {
            OFFSET 4.14528 8.04674 8.04672
            CHANNELS 3 Zrotation Xrotation Yrotation
            End Site
            {
              OFFSET 1 0 0
            }
          }
          JOINT rightEye
          {
            OFFSET -3.6576 8.04674 8.04672
            CHANNELS 3 Zrotation Xrotation Yrotation
            End Site
            {
              OFFSET 1 0 0
            }
          }
        }
      }
      JOINT rCollar
      {
        OFFSET -2.68224 19.2634 -4.8768
        CHANNELS 3 Zrotation Xrotation Yrotation
        JOINT rShldr
        {
          OFFSET -8.77824 -1.95073 1.46304
          CHANNELS 3 Zrotation Xrotation Yrotation
          JOINT rForeArm
          {
            OFFSET -28.1742 -1.7115 0.48768
            CHANNELS 3 Zrotation Xrotation Yrotation
            JOINT rHand
            {
              OFFSET -22.5879 0.773209 7.07136
              CHANNELS 3 Zrotation Xrotation Yrotation
              JOINT rThumb1
              {
                OFFSET -1.2192 -0.487915 3.41376
                CHANNELS 3 Zrotation Xrotation Yrotation
                JOINT rThumb2
                {
                  OFFSET -3.37035 -0.52449 3.41376
                  CHANNELS 3 Zrotation Xrotation Yrotation
                  End Site
                  {
                    OFFSET -1.78271 -1.18214 1.43049
                  }
                }
              }
              JOINT rIndex1
              {
                OFFSET -7.75947 0.938293 5.60832
                CHANNELS 3 Zrotation Xrotation Yrotation
                JOINT rIndex2
                {
                  OFFSET -2.54057 -0.884171 1.56538
                  CHANNELS 3 Zrotation Xrotation Yrotation
                  End Site
                  {
                    OFFSET -1.62519 -0.234802 1.16502
                  }
                }
              }
              JOINT rMid1
              {
                OFFSET -8.24714 1.18213 3.41376
                CHANNELS 3 Zrotation Xrotation Yrotation
                JOINT rMid2
                {
                  OFFSET -3.10165 -0.590103 1.0647
                  CHANNELS 3 Zrotation Xrotation Yrotation
                  End Site
                  {
                    OFFSET -2.48547 -0.328903 0.83742
                  }
                }
              }
              JOINT rRing1
              {
                OFFSET -8.82822 0.546677 1.51678
                CHANNELS 3 Zrotation Xrotation Yrotation
                JOINT rRing2
                {
                  OFFSET -2.60934 -0.819778 -0.0198488
                  CHANNELS 3 Zrotation Xrotation Yrotation
                  End Site
                  {
                    OFFSET -2.33842 -0.294052 0.168128
                  }
                }
              }
              JOINT rPinky1
              {
                OFFSET -8.27202 -0.0477905 -0.4584
                CHANNELS 3 Zrotation Xrotation Yrotation
                JOINT rPinky2
                {
                  OFFSET -1.82734 -0.647385 -0.700984
                  CHANNELS 3 Zrotation Xrotation Yrotation
                  End Site
                  {
                    OFFSET -1.69225 -0.51767 -0.607171
                  }
                }
              }
            }
          }
        }
      }
      JOINT lCollar
      {
        OFFSET 2.68224 19.2634 -4.8768
        CHANNELS 3 Zrotation Xrotation Yrotation
        JOINT lShldr
        {
          OFFSET 8.77824 -1.95073 1.46304
          CHANNELS 3 Zrotation Xrotation Yrotation
          JOINT lForeArm
          {
            OFFSET 28.1742 -1.7115 0.48768
            CHANNELS 3 Zrotation Xrotation Yrotation
            JOINT lHand
            {
              OFFSET 22.5879 0.773209 7.07136
              CHANNELS 3 Zrotation Xrotation Yrotation
              JOINT lThumb1
              {
                OFFSET 1.2192 -0.487915 3.41376
                CHANNELS 3 Zrotation Xrotation Yrotation
                JOINT lThumb2
                {
                  OFFSET 3.37035 -0.52449 3.41376
                  CHANNELS 3 Zrotation Xrotation Yrotation
                  End Site
                  {
                    OFFSET 1.78271 -1.18214 1.43049
                  }
                }
              }
              JOINT lIndex1
              {
                OFFSET 7.75947 0.938293 5.60832
                CHANNELS 3 Zrotation Xrotation Yrotation
                JOINT lIndex2
                {
                  OFFSET 2.54057 -0.884171 1.56538
                  CHANNELS 3 Zrotation Xrotation Yrotation
                  End Site
                  {
                    OFFSET 1.62519 -0.234802 1.16502
                  }
                }
              }
              JOINT lMid1
              {
                OFFSET 8.24714 1.18213 3.41376
                CHANNELS 3 Zrotation Xrotation Yrotation
                JOINT lMid2
                {
                  OFFSET 3.10165 -0.590103 1.0647
                  CHANNELS 3 Zrotation Xrotation Yrotation
                  End Site
                  {
                    OFFSET 2.48547 -0.328903 0.83742
                  }
                }
              }
              JOINT lRing1
              {
                OFFSET 8.82822 0.546677 1.51678
                CHANNELS 3 Zrotation Xrotation Yrotation
                JOINT lRing2
                {
                  OFFSET 2.60934 -0.819778 -0.0198488
                  CHANNELS 3 Zrotation Xrotation Yrotation
                  End Site
                  {
                    OFFSET 2.33842 -0.294052 0.168128
                  }
                }
              }
              JOINT lPinky1
              {
                OFFSET 8.27202 -0.0477905 -0.4584
                CHANNELS 3 Zrotation Xrotation Yrotation
                JOINT lPinky2
                {
                  OFFSET 1.82734 -0.647385 -0.700984
                  CHANNELS 3 Zrotation Xrotation Yrotation
                  End Site
                  {
                    OFFSET 1.69225 -0.51767 -0.607171
                  }
                }
              }
            }
          }
        }
      }
    }
  }
  JOINT rButtock
  {
    OFFSET -8.77824 4.35084 1.2192
    CHANNELS 3 Zrotation Xrotation Yrotation
    JOINT rThigh
    {
      OFFSET 0 -1.70687 -2.19456
      CHANNELS 3 Zrotation Xrotation Yrotation
      JOINT rShin
      {
        OFFSET 0 -36.8199 0.73152
        CHANNELS 3 Zrotation Xrotation Yrotation
        JOINT rFoot
        {
          OFFSET 0.73152 -45.1104 -5.12064
          CHANNELS 3 Zrotation Xrotation Yrotation
          End Site
          {
            OFFSET -1.1221 -3.69964 12.103
          }
        }
      }
    }
  }
  JOINT lButtock
  {
    OFFSET 8.77824 4.35084 1.2192
    CHANNELS 3 Zrotation Xrotation Yrotation
    JOINT lThigh
    {
      OFFSET 0 -1.70687 -2.19456
      CHANNELS 3 Zrotation Xrotation Yrotation
      JOINT lShin
      {
        OFFSET 0 -36.8199 0.73152
        CHANNELS 3 Zrotation Xrotation Yrotation
        JOINT lFoot
        {
          OFFSET -0.73152 -45.1104 -5.12064
          CHANNELS 3 Zrotation Xrotation Yrotation
          End Site
          {
            OFFSET 1.1221 -3.69964 12.103
          }
        }
      }
    }
  }
}
MOTION
Frames:	5
Frame Time:	0.03333
5.0306000164709985 64.52749967575073 0.5819999667437514 -23.924983978271484 61.85078048706055 -18.319984436035156 7.590213775634766 9.564330101013184 12.628496170043945 1.6776642799377441 -7.315498352050781 3.7670767307281494 3.006594181060791 15.105814933776855 15.983798027038574 -4.999643325805664 -21.68968963623047 30.43860626220703 -0.0 0.0 -0.0 -0.0 0.0 -0.0 -0.0 0.0 -0.0 83.6648941040039 39.56300354003906 -30.450300216674805 -28.29459571838379 -38.41999816894531 81.1221923828125 -5.203054904937744 -52.462860107421875 -10.536842346191406 -0.0 0.0 -0.0 -0.0 0.0 -0.0 -0.0 0.0 -0.0 7.73087739944458 5.47489595413208 0.41732463240623474 -0.0 0.0 -0.0 2.9054994583129883 0.9650753736495972 0.10300876200199127 -0.0 0.0 -0.0 10.278595924377441 0.7317469120025635 0.026285577565431595 -0.0 0.0 -0.0 2.221662759780884 -0.7335850596427917 -0.20831839740276337 -0.0 0.0 -0.0 -58.041297912597656 -4.59542179107666 -90.12049865722656 6.640799045562744 -2.341052532196045 -11.63499641418457 3.2125141620635986 45.432308197021484 -8.057007789611816 -0.0 0.0 -0.0 -0.0 0.0 -0.0 -0.0 0.0 -0.0 -7.73087739944458 5.47489595413208 -0.41732463240623474 -0.0 0.0 -0.0 -2.9054994583129883 0.9650753736495972 -0.10300876200199127 -0.0 0.0 -0.0 -10.278595924377441 0.7317469120025635 -0.026285577565431595 -0.0 0.0 -0.0 -2.221662759780884 -0.7335850596427917 0.20831839740276337 -0.0 0.0 -0.0 -3.953125 -4.233311176300049 -9.798816680908203 -0.48193588852882385 52.48080825805664 2.049135446548462 -16.001697540283203 -15.891799926757812 -33.686195373535156 -0.0 0.0 -0.0 58.250587463378906 -60.34679412841797 44.501182556152344 2.478641986846924 71.5674819946289 -2.4341628551483154 -0.20545509457588196 -0.6460846066474915 -4.069243907928467
4.5199000160209835 64.4070029258728 0.16599996561126318 -24.964981079101562 61.7001838684082 -19.5899600982666 7.5025553703308105 10.365606307983398 12.69179630279541 1.4222899675369263 -7.459675312042236 3.769165515899658 2.7075767517089844 15.044496536254883 16.062301635742188 -5.028733253479004 -21.799701690673828 30.597694396972656 -0.0 0.0 -0.0 -0.0 0.0 -0.0 -0.0 0.0 -0.0 79.38339233398438 40.22599411010742 -25.6907958984375 -28.391098022460938 -37.23110580444336 79.07830047607422 -4.1780195236206055 -48.718528747558594 -9.212021827697754 -0.0 0.0 -0.0 -0.0 0.0 -0.0 -0.0 0.0 -0.0 7.73087739944458 5.47489595413208 0.41732463240623474 -0.0 0.0 -0.0 2.9054994583129883 0.9650753736495972 0.10300876200199127 -0.0 0.0 -0.0 10.278595924377441 0.7317469120025635 0.026285577565431595 -0.0 0.0 -0.0 2.221662759780884 -0.7335850596427917 -0.20831839740276337 -0.0 0.0 -0.0 -45.7036018371582 -4.129512310028076 -90.03240203857422 8.087900161743164 -3.0456039905548096 -14.287195205688477 0.824867844581604 27.190019607543945 -4.036662578582764 -0.0 0.0 -0.0 -0.0 0.0 -0.0 -0.0 0.0 -0.0 -7.73087739944458 5.47489595413208 -0.41732463240623474 -0.0 0.0 -0.0 -2.9054994583129883 0.9650753736495972 -0.10300876200199127 -0.0 0.0 -0.0 -10.278595924377441 0.7317469120025635 -0.026285577565431595 -0.0 0.0 -0.0 -2.221662759780884 -0.7335850596427917 0.20831839740276337 -0.0 0.0 -0.0 -4.207240104675293 -5.391288757324219 -8.832423210144043 -0.5691099762916565 54.581905364990234 2.0953447818756104 -15.3533935546875 -15.479191780090332 -32.66329574584961 -0.0 0.0 -0.0 56.29050064086914 -61.18438720703125 42.29180908203125 2.4112119674682617 71.09197235107422 -2.3143279552459717 -0.10343394428491592 0.18731899559497833 -3.5906331539154053
3.94910000031814 64.35369849205017 -0.1730000312818447 -24.069984436035156 62.6243896484375 -19.240028381347656 7.1907782554626465 11.080607414245605 12.918094635009766 1.0375100374221802 -7.592024803161621 3.7968289852142334 2.6887950897216797 15.075591087341309 16.027301788330078 -5.158018589019775 -21.848506927490234 30.50800132751465 -0.0 0.0 -0.0 -0.0 0.0 -0.0 -0.0 0.0 -0.0 75.5291976928711 40.91779327392578 -21.05769920349121 -28.431795120239258 -36.0758056640625 77.12580108642578 -3.1169228553771973 -43.94285583496094 -7.768742084503174 -0.0 0.0 -0.0 -0.0 0.0 -0.0 -0.0 0.0 -0.0 7.73087739944458 5.47489595413208 0.41732463240623474 -0.0 0.0 -0.0 2.9054994583129883 0.9650753736495972 0.10300876200199127 -0.0 0.0 -0.0 10.278595924377441 0.7317469120025635 0.026285577565431595 -0.0 0.0 -0.0 2.221662759780884 -0.7335850596427917 -0.20831839740276337 -0.0 0.0 -0.0 -36.15970230102539 -3.3410305976867676 -90.68328857421875 9.896794319152832 -4.081008434295654 -17.61479377746582 0.36395642161369324 14.769103050231934 -2.1732633113861084 -0.0 0.0 -0.0 -0.0 0.0 -0.0 -0.0 0.0 -0.0 -7.73087739944458 5.47489595413208 -0.41732463240623474 -0.0 0.0 -0.0 -2.9054994583129883 0.9650753736495972 -0.10300876200199127 -0.0 0.0 -0.0 -10.278595924377441 0.7317469120025635 -0.026285577565431595 -0.0 0.0 -0.0 -2.221662759780884 -0.7335850596427917 0.20831839740276337 -0.0 0.0 -0.0 -4.570332050323486 -6.491916656494141 -7.827928066253662 -0.6718451380729675 56.69679641723633 2.142106056213379 -14.56600284576416 -14.708194732666016 -31.69640350341797 -0.0 0.0 -0.0 53.47150421142578 -62.14101791381836 39.33550262451172 2.325392007827759 70.49031829833984 -2.1709399223327637 -0.007238899357616901 1.1161633729934692 -3.057112693786621
3.297599998768419 64.2903983592987 -0.490000023637549 -23.768999099731445 63.59580612182617 -19.540014266967773 6.64968204498291 11.7077054977417 13.307594299316406 0.5231767296791077 -7.712571620941162 3.85006046295166 2.9506125450134277 15.199291229248047 15.878705024719238 -5.387684345245361 -21.83570671081543 30.168994903564453 -0.0 0.0 -0.0 -0.0 0.0 -0.0 -0.0 0.0 -0.0 72.0570068359375 41.674598693847656 -16.535707473754883 -28.429595947265625 -34.954505920410156 75.24079895019531 -2.1637110710144043 -38.122764587402344 -6.317087173461914 -0.0 0.0 -0.0 -0.0 0.0 -0.0 -0.0 0.0 -0.0 7.73087739944458 5.47489595413208 0.41732463240623474 -0.0 0.0 -0.0 2.9054994583129883 0.9650753736495972 0.10300876200199127 -0.0 0.0 -0.0 10.278595924377441 0.7317469120025635 0.026285577565431595 -0.0 0.0 -0.0 2.221662759780884 -0.7335850596427917 -0.20831839740276337 -0.0 0.0 -0.0 -29.372905731201172 -2.0024120807647705 -91.39179992675781 11.970073699951172 -5.3990607261657715 -21.63228988647461 0.12364165484905243 8.3088960647583 -1.191275715827942 -0.0 0.0 -0.0 -0.0 0.0 -0.0 -0.0 0.0 -0.0 -7.73087739944458 5.47489595413208 -0.41732463240623474 -0.0 0.0 -0.0 -2.9054994583129883 0.9650753736495972 -0.10300876200199127 -0.0 0.0 -0.0 -10.278595924377441 0.7317469120025635 -0.026285577565431595 -0.0 0.0 -0.0 -2.221662759780884 -0.7335850596427917 0.20831839740276337 -0.0 0.0 -0.0 -5.043142795562744 -7.533822059631348 -6.783792495727539 -0.7924869060516357 58.82559585571289 2.1913750171661377 -13.654909133911133 -13.573408126831055 -30.79800033569336 -0.0 0.0 -0.0 49.684513092041016 -63.16848373413086 35.521026611328125 2.2284631729125977 69.76240539550781 -2.0112035274505615 0.07747763395309448 2.1435370445251465 -2.468407392501831
2.60530001251027 64.21769857406616 -0.9540000177366892 -24.352996826171875 64.95899200439453 -20.63995933532715 6.335507869720459 12.34410285949707 13.359399795532227 0.02681795507669449 -7.817512035369873 3.8144009113311768 3.0734355449676514 15.219298362731934 15.833189010620117 -5.465747833251953 -21.733095169067383 30.064403533935547 -0.0 0.0 -0.0 -0.0 0.0 -0.0 -0.0 0.0 -0.0 68.38349151611328 42.86529541015625 -12.024203300476074 -28.38718605041504 -34.120506286621094 73.92088317871094 -1.710404872894287 -34.24689483642578 -5.5002875328063965 -0.0 0.0 -0.0 -0.0 0.0 -0.0 -0.0 0.0 -0.0 7.73087739944458 5.47489595413208 0.41732463240623474 -0.0 0.0 -0.0 2.9054994583129883 0.9650753736495972 0.10300876200199127 -0.0 0.0 -0.0 10.278595924377441 0.7317469120025635 0.026285577565431595 -0.0 0.0 -0.0 2.221662759780884 -0.7335850596427917 -0.20831839740276337 -0.0 0.0 -0.0 -22.781400680541992 -1.2501980066299438 -91.9175033569336 14.460808753967285 -7.348694801330566 -26.465503692626953 0.0025430729147046804 1.430395245552063 -0.2037193924188614 -0.0 0.0 -0.0 -0.0 0.0 -0.0 -0.0 0.0 -0.0 -7.73087739944458 5.47489595413208 -0.41732463240623474 -0.0 0.0 -0.0 -2.9054994583129883 0.9650753736495972 -0.10300876200199127 -0.0 0.0 -0.0 -10.278595924377441 0.7317469120025635 -0.026285577565431595 -0.0 0.0 -0.0 -2.221662759780884 -0.7335850596427917 0.20831839740276337 -0.0 0.0 -0.0 -5.309937953948975 -8.451011657714844 -5.665478706359863 -0.9192689061164856 60.81200408935547 2.257326602935791 -12.856508255004883 -12.852897644042969 -29.632295608520508 -0.0 0.0 -0.0 45.05672073364258 -64.39102935791016 30.606964111328125 2.112584352493286 68.84598541259766 -1.827829122543335 0.1516966074705124 3.3970916271209717 -1.8796212673187256
